<?xml version="1.0" encoding="UTF-8"?>
<svg version="1.1" xmlns="http://www.w3.org/2000/svg" width="100" height="100">
<path d="M0 0 C33 0 66 0 100 0 C100 33 100 66 100 100 C67 100 34 100 0 100 C0 67 0 34 0 0 Z " fill="#EBECED" transform="translate(0,0)"/>
<path d="M0 0 C0.33 0 0.66 0 1 0 C1.29390625 1.16402344 1.29390625 1.16402344 1.59375 2.3515625 C4.56295537 13.07653706 9.52785806 26.42749335 19 33 C24.43329793 34.25930644 29.28076436 33.08959277 34.08203125 30.40625 C38.96685885 26.82470634 42.40088963 21.79881383 46 17 C46 31.85 46 46.7 46 62 C43.36 62 40.72 62 38 62 C37.484375 60.824375 36.96875 59.64875 36.4375 58.4375 C32.71586047 51.04627185 26.51844148 46.43584678 19.91796875 41.67578125 C17.88795194 39.90210057 17.11589362 38.41522182 16 36 C15.38125 35.690625 14.7625 35.38125 14.125 35.0625 C11.26202511 33.63101256 9.87569549 31.54558673 8 29 C8.43665517 34.38541379 10.55589523 38.70323329 12.84375 43.51171875 C14.86742952 47.86673177 15.26145228 51.20670814 15 56 C14.01 56.99 14.01 56.99 13 58 C10.5 57.875 10.5 57.875 8 57 C6.2058242 54.43689172 6 53.16880694 6 50 C5.01 50 4.02 50 3 50 C3.20496094 50.54269531 3.40992188 51.08539063 3.62109375 51.64453125 C3.89050781 52.35996094 4.15992188 53.07539062 4.4375 53.8125 C4.70433594 54.52019531 4.97117188 55.22789063 5.24609375 55.95703125 C5.86225186 57.62672396 6.43719235 59.31157704 7 61 C-7.85 61 -22.7 61 -38 61 C-36.96275299 55.81376495 -35.49616823 53.84873813 -32 50.25 C-31.51104248 49.73211914 -31.02208496 49.21423828 -30.51831055 48.68066406 C-26.10395032 44.03095713 -21.58405064 39.48218285 -17 35 C-17 38.64455827 -17.9947546 39.76069898 -20 42.75 C-22.66720988 47.04891476 -23.73644012 49.84491914 -23 55 C-22.67 55.99 -22.34 56.98 -22 58 C-20.3973218 58.10824843 -18.79254252 58.18570645 -17.1875 58.25 C-16.29417969 58.29640625 -15.40085938 58.3428125 -14.48046875 58.390625 C-11.85805443 58.23305438 -11.85805443 58.23305438 -10.17578125 56.109375 C-8.83770717 54.11133306 -8.83770717 54.11133306 -9 52 C-11.475 54.97 -11.475 54.97 -14 58 C-18.875 57.125 -18.875 57.125 -20 56 C-20.71057584 48.89424165 -18.70334858 44.26240217 -15.5 38 C-15.07074219 37.12988281 -14.64148437 36.25976562 -14.19921875 35.36328125 C-13.14666108 33.23477574 -12.08025629 31.11454423 -11 29 C-22.47583363 38.74558552 -33.5986476 48.39797141 -42 61 C-45.63 61 -49.26 61 -53 61 C-53 41.86 -53 22.72 -53 3 C-50.49323903 5.50676097 -49.43964942 6.77660849 -47.984375 9.80078125 C-47.61957031 10.53103516 -47.25476562 11.26128906 -46.87890625 12.01367188 C-46.13396446 13.5306208 -45.39679913 15.05141662 -44.66796875 16.57617188 C-41.37252515 23.11538835 -37.39505026 27.58025171 -30.5625 30.4375 C-25.41111891 31.25087596 -21.28863651 30.92635287 -16.375 28.9375 C-7.58779283 21.76898889 -2.75274252 10.72002983 0 0 Z " fill="#A74350" transform="translate(54,38)"/>
<path d="M0 0 C1.79244141 0.01740234 1.79244141 0.01740234 3.62109375 0.03515625 C5.41740234 0.04869141 5.41740234 0.04869141 7.25 0.0625 C8.17683594 0.07410156 9.10367188 0.08570313 10.05859375 0.09765625 C10.18648597 6.42881432 10.27339711 12.75963342 10.33325195 19.09179688 C10.35823158 21.24101204 10.39222741 23.3901437 10.43579102 25.5390625 C10.71922188 39.89066749 10.85258702 51.04627415 1.55859375 62.72265625 C-2.59510819 67.00977474 -5.85808072 68.16584161 -11.75390625 68.66015625 C-16.95989177 68.54343012 -19.74760983 66.79486758 -23.37890625 63.15625 C-27.28603771 58.00860431 -27.66807863 51.3839491 -26.94140625 45.09765625 C-25.16717506 35.89849117 -21.118972 28.51314247 -13.81640625 22.59765625 C-7.56058468 17.41630785 -5.77744405 10.60754196 -4.3359375 2.84765625 C-3.65959639 -0.15235186 -3.20290394 0.10633811 0 0 Z " fill="#29373F" transform="translate(89.94140625,-0.09765625)"/>
<path d="M0 0 C6.93 0 13.86 0 21 0 C24 10 24 10 25.0625 13.9375 C26.53149854 17.86272728 29.0627555 20.3695853 31.9375 23.375 C38.27954005 30.04985848 41.38454927 36.76823912 42 46 C42.14695312 47.64935547 42.14695312 47.64935547 42.296875 49.33203125 C42.81097893 58.77374768 42.81097893 58.77374768 40.54296875 62.203125 C36.93040501 65.33654871 33.65070756 66.76890094 28.875 67.4375 C23.55383 66.83672274 19.95690338 64.5546304 16 61 C12.11722045 55.84477396 9.98791285 50.31160929 7.66015625 44.33984375 C5.89549648 40.78976351 3.83155498 38.7270345 1 36 C0.6875 33.1875 0.6875 33.1875 1 31 C7.34700188 31.24256058 11.02076651 34.6792985 15.75 38.5 C17.26472659 39.69905248 18.78031031 40.89702321 20.296875 42.09375 C20.96041992 42.62677734 21.62396484 43.15980469 22.30761719 43.70898438 C25.85638687 46.41612432 28.57934052 46.37463216 33 46 C36.16666667 44.83333333 36.16666667 44.83333333 38 42 C38.11265531 38.57742444 37.64675438 35.35543858 37 32 C36.0409375 32.495 36.0409375 32.495 35.0625 33 C30.90158999 34.35866449 27.32082691 34.93194306 23 34 C17.57369357 29.47807798 14.58630722 22.96343852 11.33398438 16.77539062 C8.57375428 11.6166841 5.8131886 6.93772953 0 5 C0 3.35 0 1.7 0 0 Z " fill="#2B3942" transform="translate(0,0)"/>
<path d="M0 0 C2.50676097 2.50676097 3.56035058 3.77660849 5.015625 6.80078125 C5.38042969 7.53103516 5.74523437 8.26128906 6.12109375 9.01367188 C6.86603554 10.5306208 7.60320087 12.05141662 8.33203125 13.57617188 C10.98495028 18.84041365 13.9993697 22.76607628 19 26 C21.31691454 26.72166191 23.64848923 27.40059529 26 28 C26.66 28.99 27.32 29.98 28 31 C26.35 31.33 24.7 31.66 23 32 C23 32.66 23 33.32 23 34 C22.67 34.33 22.34 34.66 22 35 C22.33 35.66 22.66 36.32 23 37 C21.5625 39.625 21.5625 39.625 20 42 C21.485 42.495 21.485 42.495 23 43 C22.38511719 43.66386719 21.77023438 44.32773438 21.13671875 45.01171875 C20.32847656 45.89472656 19.52023438 46.77773437 18.6875 47.6875 C17.88699219 48.55761719 17.08648438 49.42773438 16.26171875 50.32421875 C13.88524188 52.84301196 13.88524188 52.84301196 12.89453125 55.83203125 C12.26933594 56.54746094 11.64414063 57.26289062 11 58 C7.37 58 3.74 58 0 58 C0 38.86 0 19.72 0 0 Z " fill="#AD4350" transform="translate(1,41)"/>
<path d="M0 0 C8.58 0 17.16 0 26 0 C26 11.26222685 26 11.26222685 25.1953125 16.234375 C25.02386719 17.30300781 24.85242188 18.37164063 24.67578125 19.47265625 C24.49402344 20.55417969 24.31226562 21.63570312 24.125 22.75 C23.86396484 24.39548828 23.86396484 24.39548828 23.59765625 26.07421875 C22.7568395 31.21254333 21.89305923 36.12238792 20 41 C17.58906845 38.58906845 17.03315562 36.57410117 15.875 33.375 C13.67787368 27.9018014 11.08783165 24.72147496 6.796875 20.77734375 C1.15239535 15.19421714 1.26144687 7.56868125 0 0 Z " fill="#AA444F" transform="translate(25,0)"/>
<path d="M0 0 C7.92 0 15.84 0 24 0 C22.75072494 12.49275062 20.65152977 16.63946318 12.01489258 24.69824219 C7.41767096 29.17626793 5.48635268 33.8524453 4 40 C3.67 40 3.34 40 3 40 C2.92652344 38.49373047 2.92652344 38.49373047 2.8515625 36.95703125 C2.44491194 29.31895044 1.82566287 21.88763196 0.40234375 14.35546875 C-0.16757226 9.60247992 0 4.78703531 0 0 Z " fill="#A9424D" transform="translate(58,0)"/>
<path d="M0 0 C0.99 0 1.98 0 3 0 C3.05534912 0.58491211 3.11069824 1.16982422 3.16772461 1.77246094 C3.42117265 4.43195108 3.67928825 7.09096832 3.9375 9.75 C4.02451172 10.67039062 4.11152344 11.59078125 4.20117188 12.5390625 C4.28818359 13.42851562 4.37519531 14.31796875 4.46484375 15.234375 C4.543396 16.05131836 4.62194824 16.86826172 4.70288086 17.70996094 C4.98366367 19.87408807 5.46081736 21.88874267 6 24 C6.2198223 26.24707241 6.40483987 28.49771238 6.5625 30.75 C6.64628906 31.92046875 6.73007812 33.0909375 6.81640625 34.296875 C6.87699219 35.18890625 6.93757813 36.0809375 7 37 C7.4021875 35.3603125 7.4021875 35.3603125 7.8125 33.6875 C9.39533519 29.34622872 12.14123962 26.61085921 15.4375 23.5 C22.97232916 16.32794075 25.41259478 10.19281246 27 0 C28.65 0 30.3 0 32 0 C30.0677791 10.36026338 28.16524956 17.74925839 20 25 C12.87185032 31.46506599 9.38600115 39.2099827 8.75 48.75 C8.86998435 55.09717204 10.47913366 60.18237926 14.5625 65.0625 C19.19884554 67.67571294 22.79614397 67.75676991 28 67 C33.45831078 65.21555225 36.96025024 61.77309021 40 57 C41.56992219 53.39983892 42.84637894 49.75266145 44 46 C44.33 46 44.66 46 45 46 C45.6242072 51.99238909 45.12929252 56.10043676 41.625 61.078125 C36.317249 67.35556128 30.99878959 71.75983163 22.6875 72.625 C18.59826963 72.52293934 16.69498688 71.36274273 13.75 68.5625 C10.20493772 64.55565607 6.68668392 60.13378656 5 55 C5.32280502 53.33126221 5.65711573 51.66472799 6 50 C5.54779143 46.96243971 5.54779143 46.96243971 4.6875 43.8125 C4.11417622 41.5443752 3.55306027 39.27315081 3 37 C2.73751465 35.93168945 2.73751465 35.93168945 2.46972656 34.84179688 C0.82922835 27.54471738 0.56665245 20.33347458 0.375 12.875 C0.33632813 11.63234375 0.29765625 10.3896875 0.2578125 9.109375 C0.16438732 6.07305681 0.07861881 3.0367315 0 0 Z " fill="#F1F1F2" transform="translate(55,0)"/>
<path d="M0 0 C0.33 0 0.66 0 1 0 C1 14.85 1 29.7 1 45 C-1.64 45 -4.28 45 -7 45 C-7.27972656 44.27554688 -7.55945313 43.55109375 -7.84765625 42.8046875 C-10.28696005 36.92212205 -12.42673781 32.87033978 -17.64453125 29.12109375 C-18.09183594 28.75113281 -18.53914063 28.38117188 -19 28 C-19 27.34 -19 26.68 -19 26 C-18.34 26 -17.68 26 -17 26 C-16.566875 24.63875 -16.566875 24.63875 -16.125 23.25 C-15.23468224 20.67797092 -14.28505587 18.38653234 -13 16 C-12.34 16 -11.68 16 -11 16 C-10.7421875 15.4225 -10.484375 14.845 -10.21875 14.25 C-8.49064852 11.05965881 -6.10391733 8.65509676 -3.65625 6 C-2.06105306 4.07372445 -1.01567082 2.27510263 0 0 Z " fill="#A9404B" transform="translate(99,55)"/>
<path d="M0 0 C2.88983247 2.80226179 5.55380936 5.65217995 8.125 8.75 C11.80323366 13.01578521 16.0235507 16.39045825 20.40625 19.90625 C26.1185115 24.51735265 29.13054383 27.67724542 31 35 C26.41671978 35.05802751 21.83353396 35.09360593 17.25 35.125 C15.94804688 35.14175781 14.64609375 35.15851563 13.3046875 35.17578125 C12.05429688 35.18222656 10.80390625 35.18867187 9.515625 35.1953125 C8.36352539 35.20578613 7.21142578 35.21625977 6.02441406 35.22705078 C3.05182378 35.00389055 1.43740671 34.67178412 -1 33 C-3.25881554 29.28908876 -4 27.39989151 -4 23 C-3.01 23 -2.02 23 -1 23 C-0.01 25.31 0.98 27.62 2 30 C3.65 29.67 5.3 29.34 7 29 C7.91871228 21.0990744 4.44052754 13.69141949 0.84375 6.77734375 C-0.26009581 4.452113 -0.14105949 2.53907086 0 0 Z " fill="#EFEEEF" transform="translate(61,65)"/>
<path d="M0 0 C1.79244141 0.01740234 1.79244141 0.01740234 3.62109375 0.03515625 C5.41740234 0.04869141 5.41740234 0.04869141 7.25 0.0625 C8.17683594 0.07410156 9.10367188 0.08570313 10.05859375 0.09765625 C10.75197119 8.34114357 9.61764757 13.25907552 5.05859375 20.09765625 C4.65125 20.82210938 4.24390625 21.5465625 3.82421875 22.29296875 C1.25048705 26.82206805 -1.10846246 29.77784323 -5.94140625 32.09765625 C-9.69140625 32.47265625 -9.69140625 32.47265625 -12.94140625 32.09765625 C-13.60140625 31.43765625 -14.26140625 30.77765625 -14.94140625 30.09765625 C-14.94140625 29.43765625 -14.94140625 28.77765625 -14.94140625 28.09765625 C-15.27140625 27.43765625 -15.60140625 26.77765625 -15.94140625 26.09765625 C-15.14476563 25.27587891 -15.14476563 25.27587891 -14.33203125 24.4375 C-8.60006639 18.00472922 -6.4297709 12.33981868 -4.6328125 4.125 C-3.71891467 0.12346994 -3.71891467 0.12346994 0 0 Z " fill="#26333C" transform="translate(89.94140625,-0.09765625)"/>
<path d="M0 0 C1.32 0 2.64 0 4 0 C4.18433594 1.03898438 4.36867188 2.07796875 4.55859375 3.1484375 C6.2996845 11.86540779 8.27592263 17.32311824 14.80859375 23.68359375 C18.90382497 28.01242105 21.13371141 33.40113424 23 39 C26.09580007 30.98994996 27.15383812 22.90592257 28.1875 14.4375 C28.36570557 13.03309744 28.54473583 11.62879928 28.72460938 10.22460938 C29.15924704 6.81755628 29.58273201 3.40922927 30 0 C31.32 0 32.64 0 34 0 C35.04490931 4.07769485 35.13772285 8.01798705 35.24072266 12.19799805 C35.49639597 22.1788234 36.578228 31.62895515 38.71606445 41.38476562 C38.89484131 42.21041016 39.07361816 43.03605469 39.2578125 43.88671875 C39.4242627 44.61076904 39.59071289 45.33481934 39.76220703 46.08081055 C40 48 40 48 39 51 C36.68006154 43.71359134 34.52463563 36.49612516 33 29 C30.21290603 33.18064096 29.60399048 37.72983551 28.58789062 42.57617188 C27.58993144 47.10475957 26.28293068 50.9089362 24 55 C22.59257978 52.18515955 23.33347836 50.43063887 23.9375 47.375 C24.13214844 46.37210938 24.32679687 45.36921875 24.52734375 44.3359375 C24.68332031 43.56507812 24.83929688 42.79421875 25 42 C24.01 42 23.02 42 22 42 C21.34 43.32 20.68 44.64 20 46 C19.91363281 45.29875 19.82726562 44.5975 19.73828125 43.875 C18.5352157 35.75154822 16.22513936 30.65707767 10.8125 24.51953125 C4.53888906 17.36885299 0 9.81680456 0 0 Z " fill="#EFF1F1" transform="translate(21,0)"/>
<path d="M0 0 C0.33 0 0.66 0 1 0 C2.95984799 18.53312666 2.95984799 18.53312666 -1.35546875 23.96484375 C-4.48243283 25.96625929 -7.61279016 27.48865728 -11 29 C-12.5623848 30.13877169 -14.10656947 31.30324775 -15.625 32.5 C-20.28999714 35.66706228 -24.52365825 35.61737464 -30 35 C-31.73107488 31.53785023 -31.48819473 27.78509418 -31 24 C-29.90291271 21.63814832 -28.6695627 20.03477954 -27 18 C-26.319375 18.33 -25.63875 18.66 -24.9375 19 C-21.34116838 20.2242831 -18.78329077 20.39824113 -15 20 C-9.44040357 17.09518441 -7.30824382 13.74524508 -4.6875 8.3125 C-1.02843045 1.02843045 -1.02843045 1.02843045 0 0 Z " fill="#799DC9" transform="translate(99,11)"/>
<path d="M0 0 C0 3.64455827 -0.9947546 4.76069898 -3 7.75 C-5.66720988 12.04891476 -6.73644012 14.84491914 -6 20 C-5.67 20.99 -5.34 21.98 -5 23 C-1.61920665 23.29033531 1.62797616 23.43407528 5 23 C7.87411615 20.40628543 8.78516202 18.64451394 10 15 C8.02 15 6.04 15 4 15 C3.67 14.34 3.34 13.68 3 13 C10.26153846 10.78461538 10.26153846 10.78461538 14 11.875 C14.66 12.24625 15.32 12.6175 16 13 C16.66 12.34 17.32 11.68 18 11 C20.1640625 11.0234375 20.1640625 11.0234375 22.625 11.375 C23.44226562 11.48585938 24.25953125 11.59671875 25.1015625 11.7109375 C25.72804687 11.80632812 26.35453125 11.90171875 27 12 C26.67 12.66 26.34 13.32 26 14 C22.9375 14.625 22.9375 14.625 20 15 C20.20496094 15.54269531 20.40992188 16.08539063 20.62109375 16.64453125 C20.89050781 17.35996094 21.15992188 18.07539062 21.4375 18.8125 C21.70433594 19.52019531 21.97117188 20.22789063 22.24609375 20.95703125 C22.86225186 22.62672396 23.43719235 24.31157704 24 26 C9.15 26 -5.7 26 -21 26 C-19.96275299 20.81376495 -18.49616823 18.84873813 -15 15.25 C-14.51104248 14.73211914 -14.02208496 14.21423828 -13.51831055 13.68066406 C-9.10395032 9.03095713 -4.58405064 4.48218285 0 0 Z " fill="#26343D" transform="translate(37,73)"/>
<path d="M0 0 C8.95117554 3.58047022 11.32322157 10.35046241 15.15625 18.7578125 C17.41787894 22.73482949 19.92952346 24.96476173 24 27 C26.04055005 27.07065617 28.08334257 27.08421976 30.125 27.0625 C31.22070312 27.05347656 32.31640625 27.04445313 33.4453125 27.03515625 C34.28835937 27.02355469 35.13140625 27.01195313 36 27 C35.125 34.875 35.125 34.875 34 36 C29.60995598 36.4998565 27.51130603 36.31895757 23.71875 33.953125 C22.63191558 33.06892073 21.55903617 32.167316 20.5 31.25 C13.90767018 25.73233222 8.49145229 22.42612923 0 20 C0 13.4 0 6.8 0 0 Z " fill="#6F97C7" transform="translate(0,8)"/>
<path d="M0 0 C2.86724686 0.57344937 3.8614515 0.8614515 6 3 C4.35 3.33 2.7 3.66 1 4 C1 4.66 1 5.32 1 6 C0.67 6.33 0.34 6.66 0 7 C0.33 7.66 0.66 8.32 1 9 C-0.4375 11.625 -0.4375 11.625 -2 14 C-1.01 14.33 -0.02 14.66 1 15 C0.38511719 15.66386719 -0.22976562 16.32773438 -0.86328125 17.01171875 C-1.67152344 17.89472656 -2.47976562 18.77773437 -3.3125 19.6875 C-4.11300781 20.55761719 -4.91351562 21.42773438 -5.73828125 22.32421875 C-8.0740776 24.88209245 -8.0740776 24.88209245 -9.4375 27.8125 C-11 30 -11 30 -13.69921875 30.48828125 C-16.46614583 30.32552083 -19.23307292 30.16276042 -22 30 C-22 23.4 -22 16.8 -22 10 C-21.67 10.66 -21.34 11.32 -21 12 C-20.01 12 -19.02 12 -18 12 C-18 11.01 -18 10.02 -18 9 C-17.01 9 -16.02 9 -15 9 C-13.50178941 12.37097383 -13 14.20442119 -13 18 C-13.66 18 -14.32 18 -15 18 C-15 18.99 -15 19.98 -15 21 C-10.91084731 16.58595572 -7.36549594 12.5658728 -5 7 C-5.33 6.67 -5.66 6.34 -6 6 C-6 4.68 -6 3.36 -6 2 C-3.03 2.495 -3.03 2.495 0 3 C0 2.01 0 1.02 0 0 Z " fill="#AE4856" transform="translate(23,69)"/>
<path d="M0 0 C0.99 0.495 0.99 0.495 2 1 C1.67 20.14 1.34 39.28 1 59 C11.32702625 59.33882058 11.32702625 59.33882058 14.125 55.5625 C14.40085937 55.0159375 14.67671875 54.469375 14.9609375 53.90625 C19.15746164 46.20736361 27.08414635 39.86289269 33.375 33.875 C34.4283252 32.86095093 34.4283252 32.86095093 35.50292969 31.82641602 C36.16969727 31.20049561 36.83646484 30.5745752 37.5234375 29.9296875 C38.12075684 29.36491699 38.71807617 28.80014648 39.33349609 28.21826172 C41 27 41 27 44 27 C43.59104492 27.80050781 43.59104492 27.80050781 43.17382812 28.6171875 C41.9325298 31.07007786 40.71626129 33.53460548 39.5 36 C39.07074219 36.83917969 38.64148437 37.67835937 38.19921875 38.54296875 C35.52384886 44.0211071 34.49203214 47.9043857 35 54 C36.65 54.33 38.3 54.66 40 55 C41.65 53.02 43.3 51.04 45 49 C46 52 46 52 44.6875 54.6875 C41.08504617 57.78728585 38.64741956 57.40846775 34.046875 57.17578125 C33.03367187 57.08876953 33.03367187 57.08876953 32 57 C29.87093196 53.03375227 29.41099763 50.56476837 30 46 C31.75845033 42.49843467 33.80688798 39.2439782 36 36 C33.29724875 36 30.00632248 40.80800548 28.1875 42.625 C27.24293945 43.55119141 27.24293945 43.55119141 26.27929688 44.49609375 C21.88007591 48.88146617 17.99888614 53.00334157 16 59 C16.57185028 58.9830307 17.14370056 58.9660614 17.73287964 58.94857788 C23.66944561 58.77441306 29.60627234 58.61447082 35.54345703 58.46289062 C37.76100488 58.4043887 39.97845922 58.34222559 42.19580078 58.27636719 C45.37775653 58.1824874 48.55981315 58.10165674 51.7421875 58.0234375 C53.23599442 57.97514297 53.23599442 57.97514297 54.75997925 57.9258728 C56.14118454 57.89561508 56.14118454 57.89561508 57.55029297 57.86474609 C58.3630368 57.84253998 59.17578064 57.82033386 60.01315308 57.79745483 C62 58 62 58 64 60 C42.88 60 21.76 60 0 60 C0 40.2 0 20.4 0 0 Z " fill="#BDA8AD" transform="translate(0,40)"/>
<path d="M0 0 C3.3 0 6.6 0 10 0 C10.33 0.66 10.66 1.32 11 2 C12.98 2 14.96 2 17 2 C18.65 4.97 20.3 7.94 22 11 C15.33061889 16.78013029 15.33061889 16.78013029 9.6875 17.3125 C5.35292775 16.94516337 3.31874973 15.75213393 0 13 C0 12.34 0 11.68 0 11 C0.66 11 1.32 11 2 11 C2 10.34 2 9.68 2 9 C2.66 9 3.32 9 4 9 C3.72965366 6.56282742 3.72965366 6.56282742 3 4 C2.01 3.34 1.02 2.68 0 2 C0 1.34 0 0.68 0 0 Z " fill="#323F48" transform="translate(19,50)"/>
<path d="M0 0 C7.92 0 15.84 0 24 0 C24 0.33 24 0.66 24 1 C16.74 1 9.48 1 2 1 C2.33 5.29 2.66 9.58 3 14 C7.94463635 12.66436384 7.94463635 12.66436384 9 10 C9.66 10 10.32 10 11 10 C10.67 11.32 10.34 12.64 10 14 C11.98 15.32 13.96 16.64 16 18 C14.94257214 21.75974349 13.19217098 23.97608546 10.5625 26.75 C6.85724365 30.79490484 5.28351663 34.71924585 4 40 C3.67 40 3.34 40 3 40 C2.92652344 38.49373047 2.92652344 38.49373047 2.8515625 36.95703125 C2.44491194 29.31895044 1.82566287 21.88763196 0.40234375 14.35546875 C-0.16757226 9.60247992 0 4.78703531 0 0 Z " fill="#B04451" transform="translate(58,0)"/>
<path d="M0 0 C2.51083114 1.25541557 2.87125446 2.50063488 4 5 C1 6 1 6 -2 6 C-4.02558881 9.34939881 -4.21738987 11.86962551 -4.125 15.75 C-4.10695313 16.73484375 -4.08890625 17.7196875 -4.0703125 18.734375 C-4.04710938 19.48203125 -4.02390625 20.2296875 -4 21 C-1.69 21 0.62 21 3 21 C1.625 22.5 1.625 22.5 0 24 C-0.66 24 -1.32 24 -2 24 C-2 24.66 -2 25.32 -2 26 C-1.34 26.33 -0.68 26.66 0 27 C0.625 29.5625 0.625 29.5625 1 32 C-0.485 32.495 -0.485 32.495 -2 33 C-1.649375 33.556875 -1.29875 34.11375 -0.9375 34.6875 C0.21845993 37.53886783 -0.19032562 39.08517222 -1 42 C-4.87738104 39.26302515 -8.17402659 36.86068551 -9.4375 32.125 C-11.35693334 20.86432442 -8.85088801 11.98048576 -2.3046875 2.71484375 C-1 1 -1 1 0 0 Z " fill="#28363F" transform="translate(73,25)"/>
<path d="M0 0 C1.79244141 0.01740234 1.79244141 0.01740234 3.62109375 0.03515625 C5.41740234 0.04869141 5.41740234 0.04869141 7.25 0.0625 C8.17683594 0.07410156 9.10367188 0.08570313 10.05859375 0.09765625 C10.74653522 10.83718703 10.74653522 10.83718703 8.30859375 14.72265625 C6.11530871 17.03779046 5.19093825 17.87391736 2.05859375 18.09765625 C2.05859375 16.77765625 2.05859375 15.45765625 2.05859375 14.09765625 C0.07859375 14.42765625 -1.90140625 14.75765625 -3.94140625 15.09765625 C-3.94140625 14.43765625 -3.94140625 13.77765625 -3.94140625 13.09765625 C-4.60140625 13.09765625 -5.26140625 13.09765625 -5.94140625 13.09765625 C-5.63381447 11.11772084 -5.32019945 9.13872026 -5.00390625 7.16015625 C-4.82988281 6.05800781 -4.65585938 4.95585937 -4.4765625 3.8203125 C-3.75012712 0.12450621 -3.75012712 0.12450621 0 0 Z " fill="#303D46" transform="translate(89.94140625,-0.09765625)"/>
<path d="M0 0 C0 3.64455827 -0.9947546 4.76069898 -3 7.75 C-5.66720988 12.04891476 -6.73644012 14.84491914 -6 20 C-5.67 20.99 -5.34 21.98 -5 23 C-2.69 23.33 -0.38 23.66 2 24 C2 24.33 2 24.66 2 25 C-2.77092956 26.23402862 -7.42469446 26.11265112 -12.3125 26.0625 C-13.14845703 26.05798828 -13.98441406 26.05347656 -14.84570312 26.04882812 C-16.89716649 26.03710548 -18.94859273 26.01917203 -21 26 C-20.57648926 21.16491903 -18.25122316 18.59660691 -15 15.25 C-14.51104248 14.73211914 -14.02208496 14.21423828 -13.51831055 13.68066406 C-9.10395032 9.03095713 -4.58405064 4.48218285 0 0 Z " fill="#293740" transform="translate(37,73)"/>
<path d="M0 0 C0.66 0 1.32 0 2 0 C3.04490931 4.07769485 3.13772285 8.01798705 3.24072266 12.19799805 C3.49639597 22.1788234 4.578228 31.62895515 6.71606445 41.38476562 C6.98422974 42.62323242 6.98422974 42.62323242 7.2578125 43.88671875 C7.4242627 44.61076904 7.59071289 45.33481934 7.76220703 46.08081055 C8 48 8 48 7 51 C4.68006154 43.71359134 2.52463563 36.49612516 1 29 C-1.78709397 33.18064096 -2.39600952 37.72983551 -3.41210938 42.57617188 C-4.41006856 47.10475957 -5.71706932 50.9089362 -8 55 C-9.38379333 52.23241334 -8.63849437 50.9113161 -7.85546875 47.94140625 C-7.45811523 46.40129883 -7.45811523 46.40129883 -7.05273438 44.83007812 C-6.76720703 43.75177734 -6.48167969 42.67347656 -6.1875 41.5625 C-3.28313781 30.49858849 -0.83752037 19.76951495 -0.375 8.3125 C-0.31699219 7.09916992 -0.31699219 7.09916992 -0.2578125 5.86132812 C-0.16534019 3.90785047 -0.08168363 1.95395851 0 0 Z " fill="#4A545A" transform="translate(53,0)"/>
<path d="M0 0 C0 3 0 3 -1.375 4.6875 C-3 6 -3 6 -5 6 C-4.67 6.66 -4.34 7.32 -4 8 C-3.01 8 -2.02 8 -1 8 C-2.57646551 9.32074115 -4.16145531 10.63131224 -5.75 11.9375 C-6.63171875 12.66839844 -7.5134375 13.39929688 -8.421875 14.15234375 C-12.85938772 17.3325612 -16.60051124 17.20375429 -22 17 C-23 16 -23 16 -23.25 12.75 C-22.99026663 8.85399939 -22.26032469 7.10794645 -20 4 C-19.505 4.33 -19.01 4.66 -18.5 5 C-14.98533168 6.40586733 -11.69924534 6.5975704 -8 6 C-4.85655565 4.25364203 -2.53137274 2.53137274 0 0 Z " fill="#82A8D7" transform="translate(92,27)"/>
<path d="M0 0 C15.04615385 12.53846154 15.04615385 12.53846154 18 19 C18 19.99 18 20.98 18 22 C12.06 22 6.12 22 0 22 C0.33 21.34 0.66 20.68 1 20 C1.66 20 2.32 20 3 20 C3.08150744 17.93816367 3.1394194 15.87538651 3.1875 13.8125 C3.22230469 12.66394531 3.25710937 11.51539062 3.29296875 10.33203125 C2.97400128 6.70430793 2.01145291 4.97230443 0 2 C0 1.34 0 0.68 0 0 Z " fill="#3C484F" transform="translate(68,78)"/>
<path d="M0 0 C0.33 0 0.66 0 1 0 C1.6242072 5.99238909 1.12929252 10.10043676 -2.375 15.078125 C-7.682751 21.35556128 -13.00121041 25.75983163 -21.3125 26.625 C-25.5267844 26.54760913 -27.39096937 25.23058521 -30.375 22.3125 C-35.72045487 16.24151433 -35.72045487 16.24151433 -37 13 C-36.6875 9.6875 -36.6875 9.6875 -36 7 C-35.67 7 -35.34 7 -35 7 C-34.85304688 7.59167969 -34.70609375 8.18335938 -34.5546875 8.79296875 C-32.93728553 14.4910573 -31.38713734 17.9636135 -26 21 C-20.11160212 21.98618696 -14.95656865 21.49212791 -10 18 C-4.35779396 13.02408462 -2.17256747 7.06723417 0 0 Z " fill="#EBEBEB" transform="translate(99,46)"/>
<path d="M0 0 C2.86724686 0.57344937 3.8614515 0.8614515 6 3 C4.35 3.33 2.7 3.66 1 4 C1 4.66 1 5.32 1 6 C0.67 6.33 0.34 6.66 0 7 C0.33 7.66 0.66 8.32 1 9 C-0.4375 11.625 -0.4375 11.625 -2 14 C-1.01 14.33 -0.02 14.66 1 15 C0.38511719 15.66386719 -0.22976562 16.32773438 -0.86328125 17.01171875 C-1.67152344 17.89472656 -2.47976562 18.77773437 -3.3125 19.6875 C-4.11300781 20.55761719 -4.91351563 21.42773438 -5.73828125 22.32421875 C-8.05991883 24.90344479 -8.05991883 24.90344479 -9.59375 27.8125 C-10.0578125 28.534375 -10.521875 29.25625 -11 30 C-14.1875 30.3125 -14.1875 30.3125 -17 30 C-16.67 28.68 -16.34 27.36 -16 26 C-15.34 26 -14.68 26 -14 26 C-13.67 25.34 -13.34 24.68 -13 24 C-13 24.66 -13 25.32 -13 26 C-12.34 26 -11.68 26 -11 26 C-10.34 23.03 -9.68 20.06 -9 17 C-8.34 17.33 -7.68 17.66 -7 18 C-7.33 18.66 -7.66 19.32 -8 20 C-7.34 20 -6.68 20 -6 20 C-6 18.68 -6 17.36 -6 16 C-6.66 15.34 -7.32 14.68 -8 14 C-6.125 9.25 -6.125 9.25 -5 7 C-5.33 6.67 -5.66 6.34 -6 6 C-6 4.68 -6 3.36 -6 2 C-3.03 2.495 -3.03 2.495 0 3 C0 2.01 0 1.02 0 0 Z " fill="#AE4654" transform="translate(23,69)"/>
<path d="M0 0 C0.66 0.33 1.32 0.66 2 1 C1.59104492 1.80050781 1.59104492 1.80050781 1.17382812 2.6171875 C-0.0674702 5.07007786 -1.28373871 7.53460548 -2.5 10 C-2.92925781 10.83917969 -3.35851563 11.67835937 -3.80078125 12.54296875 C-6.47615114 18.0211071 -7.50796786 21.9043857 -7 28 C-5.35 28.33 -3.7 28.66 -2 29 C-0.35 27.02 1.3 25.04 3 23 C4 26 4 26 2.6875 28.6875 C-0.91495383 31.78728585 -3.35258044 31.40846775 -7.953125 31.17578125 C-8.62859375 31.11777344 -9.3040625 31.05976562 -10 31 C-12.12906804 27.03375227 -12.58900237 24.56476837 -12 20 C-10.24154967 16.49843467 -8.19311202 13.2439782 -6 10 C-6.33 10 -6.66 10 -7 10 C-7.474375 10.495 -7.94875 10.99 -8.4375 11.5 C-10 13 -10 13 -12 13 C-12 12.34 -12 11.68 -12 11 C-10.390625 9.4140625 -10.390625 9.4140625 -8.25 7.625 C-5.3756268 5.18382134 -2.61456008 2.72350008 0 0 Z " fill="#EDEFF0" transform="translate(42,66)"/>
<path d="M0 0 C8.29907424 3.3196297 10.60131774 8.76973719 14.08203125 16.609375 C15 19 15 19 15 21 C14.01 20.67 13.02 20.34 12 20 C11.67 19.01 11.34 18.02 11 17 C10.34 17.33 9.68 17.66 9 18 C9 17.34 9 16.68 9 16 C8.01 16.33 7.02 16.66 6 17 C3.3125 15.5625 3.3125 15.5625 1 14 C1 15.98 1 17.96 1 20 C0.67 20 0.34 20 0 20 C0 13.4 0 6.8 0 0 Z " fill="#82A7D4" transform="translate(0,8)"/>
<path d="M0 0 C0.33 0 0.66 0 1 0 C1.14099121 0.64549805 1.28198242 1.29099609 1.42724609 1.95605469 C2.07101511 4.88860448 2.72291665 7.81928829 3.375 10.75 C3.59671875 11.76578125 3.8184375 12.7815625 4.046875 13.828125 C4.37558594 15.29765625 4.37558594 15.29765625 4.7109375 16.796875 C4.90993652 17.69760742 5.10893555 18.59833984 5.31396484 19.52636719 C5.97105689 21.89563999 6.85633517 23.83385337 8 26 C8.36784131 27.3242287 8.71202981 28.65613912 9 30 C6 29 6 29 4.61328125 26.27734375 C4.18402344 25.17519531 3.75476562 24.07304688 3.3125 22.9375 C2.65701172 21.28041016 2.65701172 21.28041016 1.98828125 19.58984375 C1.66214844 18.73519531 1.33601563 17.88054688 1 17 C0.74605469 17.74765625 0.49210937 18.4953125 0.23046875 19.265625 C-0.11371094 20.25046875 -0.45789062 21.2353125 -0.8125 22.25 C-1.14894531 23.22453125 -1.48539063 24.1990625 -1.83203125 25.203125 C-2.94132042 27.85948302 -4.1693283 29.79689939 -6 32 C-7.49155424 27.79652896 -6.4648691 25.08235322 -4.96875 21.0234375 C-3.64266509 16.88476929 -2.73457933 12.68188043 -1.8125 8.4375 C-1.63372314 7.61483643 -1.45494629 6.79217285 -1.27075195 5.94458008 C-0.84346984 3.96384753 -0.42120873 1.98203295 0 0 Z " fill="#E5E5E6" transform="translate(53,24)"/>
<path d="M0 0 C-0.99 0.33 -1.98 0.66 -3 1 C-3 1.99 -3 2.98 -3 4 C-2.34 4 -1.68 4 -1 4 C-1.33 4.99 -1.66 5.98 -2 7 C-2 6.34 -2 5.68 -2 5 C-2.99 5.66 -3.98 6.32 -5 7 C-5.99 7.495 -5.99 7.495 -7 8 C-6.24849977 11.27773504 -6.24849977 11.27773504 -3 13 C-3.99 13.99 -4.98 14.98 -6 16 C-5.67 16.66 -5.34 17.32 -5 18 C-1.7 18 1.6 18 5 18 C4.67 18.66 4.34 19.32 4 20 C0.98509443 21.00496852 -1.04181692 21.10335303 -4.1875 21.0625 C-5.08855469 21.05347656 -5.98960938 21.04445313 -6.91796875 21.03515625 C-7.60503906 21.02355469 -8.29210937 21.01195313 -9 21 C-10.49821059 17.62902617 -11 15.79557881 -11 12 C-11.33 11.34 -11.66 10.68 -12 10 C-10.68 10 -9.36 10 -8 10 C-8.33 8.35 -8.66 6.7 -9 5 C-9.99 4.67 -10.98 4.34 -12 4 C-11.67 2.68 -11.34 1.36 -11 0 C-7.01803543 -1.05404945 -4.01804691 -0.84098656 0 0 Z " fill="#232F38" transform="translate(82,47)"/>
<path d="M0 0 C1.33332095 2.6666419 0.67102033 4.16680303 0 7 C-0.66 7 -1.32 7 -2 7 C-2.12375 7.763125 -2.2475 8.52625 -2.375 9.3125 C-3 12 -3 12 -5 15 C-4.65394389 17.28397032 -4.03295481 18.93409037 -3 21 C0.02934491 21.65772428 0.02934491 21.65772428 3 22 C2.67 22.99 2.34 23.98 2 25 C1.67 24.67 1.34 24.34 1 24 C-0.65 25.98 -2.3 27.96 -4 30 C-8.875 29.125 -8.875 29.125 -10 28 C-10.69846803 20.92700766 -8.73911462 16.30486106 -5.5625 10.0625 C-5.14162109 9.20076172 -4.72074219 8.33902344 -4.28710938 7.45117188 C-1.21639655 1.21639655 -1.21639655 1.21639655 0 0 Z " fill="#A9424D" transform="translate(44,66)"/>
<path d="M0 0 C20.22309617 14.40471934 20.22309617 14.40471934 22 24 C20.02 24 18.04 24 16 24 C15.47921875 22.824375 14.9584375 21.64875 14.421875 20.4375 C12.09460328 15.78295655 9.00670584 12.54203693 5.25 9 C4.64800781 8.41605469 4.04601562 7.83210938 3.42578125 7.23046875 C1.95962101 5.81085328 0.48108656 4.40403581 -1 3 C-0.67 2.01 -0.34 1.02 0 0 Z " fill="#F3F4F4" transform="translate(70,76)"/>
<path d="M0 0 C0.33 0 0.66 0 1 0 C1.27714844 0.90363281 1.55429687 1.80726562 1.83984375 2.73828125 C2.20207031 3.91777344 2.56429687 5.09726562 2.9375 6.3125 C3.29714844 7.48425781 3.65679687 8.65601563 4.02734375 9.86328125 C4.66372279 11.91553977 5.32053379 13.96160137 6 16 C5.34 16 4.68 16 4 16 C4 15.34 4 14.68 4 14 C3.34 14 2.68 14 2 14 C2.020625 15.11375 2.04125 16.2275 2.0625 17.375 C2 21 2 21 1 23 C0.01 22.67 -0.98 22.34 -2 22 C-1.67 21.01 -1.34 20.02 -1 19 C-2.32 19 -3.64 19 -5 19 C-5.66 18.67 -6.32 18.34 -7 18 C-6.1028125 16.329375 -6.1028125 16.329375 -5.1875 14.625 C-2.81973188 9.92316864 -1.37095582 5.06838212 0 0 Z " fill="#AE4B5B" transform="translate(54,38)"/>
<path d="M0 0 C0.33 0 0.66 0 1 0 C1 14.85 1 29.7 1 45 C-1.64 45 -4.28 45 -7 45 C-6.01 44.505 -6.01 44.505 -5 44 C-5.226875 43.071875 -5.45375 42.14375 -5.6875 41.1875 C-5.8421875 39.6096875 -5.8421875 39.6096875 -6 38 C-4.6875 36.4375 -4.6875 36.4375 -3 35 C-1.0166751 31.05147285 -0.77473365 27.84246157 -0.83984375 23.45703125 C-0.85080078 22.21888672 -0.86175781 20.98074219 -0.87304688 19.70507812 C-0.90495117 17.77825195 -0.90495117 17.77825195 -0.9375 15.8125 C-0.97181638 13.25656533 -1.00198357 10.70057047 -1.02734375 8.14453125 C-1.05429321 6.44840698 -1.05429321 6.44840698 -1.08178711 4.71801758 C-1 2 -1 2 0 0 Z " fill="#B8626C" transform="translate(99,55)"/>
<path d="M0 0 C0.66 0 1.32 0 2 0 C2.59369953 13.8035141 1.3971941 26.80841771 -3 40 C-3.66 40 -4.32 40 -5 40 C-4.23451724 31.42505961 -3.0926321 22.90411412 -1.9375 14.375 C-1.74919483 12.97528114 -1.56104271 11.57554169 -1.37304688 10.17578125 C-0.91712602 6.78361524 -0.45914407 3.39173142 0 0 Z " fill="#F4F4F4" transform="translate(51,0)"/>
<path d="M0 0 C2.97 0.495 2.97 0.495 6 1 C4.68 2.65 3.36 4.3 2 6 C2.495 6.928125 2.495 6.928125 3 7.875 C4 10 4 10 4 12 C3.01 12 2.02 12 1 12 C1.33 12.99 1.66 13.98 2 15 C-0.875 15.125 -0.875 15.125 -4 15 C-4.66 14.34 -5.32 13.68 -6 13 C-5.34 13 -4.68 13 -4 13 C-3.80666174 9.27883003 -3.80666174 9.27883003 -4.625 6.9375 C-5 5 -5 5 -3 2 C-2.01 1.67 -1.02 1.34 0 1 C0 0.67 0 0.34 0 0 Z " fill="#48545B" transform="translate(80,50)"/>
<path d="M0 0 C0.66 0 1.32 0 2 0 C2.268125 0.61875 2.53625 1.2375 2.8125 1.875 C3.95556848 4.2995233 3.95556848 4.2995233 7 6 C7 6.99 7 7.98 7 9 C7.99 9.33 8.98 9.66 10 10 C8.41450777 14.84455959 8.41450777 14.84455959 7 17 C3.8125 17.9375 3.8125 17.9375 1 18 C1.66666667 14.66666667 2.33333333 11.33333333 3 8 C2.01 8 1.02 8 0 8 C-0.38063221 5.6739143 -0.71269945 3.33944736 -1 1 C-0.67 0.67 -0.34 0.34 0 0 Z " fill="#AE4656" transform="translate(4,54)"/>
<path d="M0 0 C0.33 0 0.66 0 1 0 C1.33 1.65 1.66 3.3 2 5 C3.32 5 4.64 5 6 5 C6 4.34 6 3.68 6 3 C6.66 3 7.32 3 8 3 C8 3.99 8 4.98 8 6 C9.65 5.34 11.3 4.68 13 4 C12.60167969 4.44730469 12.20335938 4.89460938 11.79296875 5.35546875 C6.85870029 10.98605734 3.878175 15.63177502 2 23 C1.67 23 1.34 23 1 23 C0.67 15.41 0.34 7.82 0 0 Z " fill="#983F4A" transform="translate(60,17)"/>
<path d="M0 0 C0.33 0.99 0.66 1.98 1 3 C-1.9192886 4.9461924 -4.83970227 6.88999141 -7.76953125 8.8203125 C-9.69655877 10.12053179 -11.60052327 11.45781519 -13.44921875 12.8671875 C-18.99967437 17.03252044 -23.11465267 17.7762187 -30 17 C-31.17673198 14.64653604 -31.16623866 13.1193967 -31.1875 10.5 C-31.20167969 9.7059375 -31.21585937 8.911875 -31.23046875 8.09375 C-31 6 -31 6 -29 4 C-29 7.3 -29 10.6 -29 14 C-20.36267788 14.33871851 -15.95421838 11.46871441 -9.3125 6.4375 C-7.97619414 5.43495214 -6.63899559 4.43359272 -5.30078125 3.43359375 C-4.71466064 2.99072021 -4.12854004 2.54784668 -3.5246582 2.09155273 C-2 1 -2 1 0 0 Z " fill="#E0E3E5" transform="translate(99,29)"/>
<path d="M0 0 C2.28013533 2.09498574 3.67586249 4.01665117 5.015625 6.80078125 C5.38042969 7.53103516 5.74523437 8.26128906 6.12109375 9.01367188 C6.86603554 10.5306208 7.60320087 12.05141662 8.33203125 13.57617188 C10.70491037 18.28472469 13.16586283 21.46019811 17.34277344 24.69995117 C19.03228619 26.02532763 20.51016208 27.45622746 22 29 C21.38511719 28.90460938 20.77023438 28.80921875 20.13671875 28.7109375 C19.32847656 28.60007812 18.52023438 28.48921875 17.6875 28.375 C16.88699219 28.25898437 16.08648438 28.14296875 15.26171875 28.0234375 C12.71276785 27.78466593 12.71276785 27.78466593 10 30 C10.99 26.535 10.99 26.535 12 23 C11.34 22.67 10.68 22.34 10 22 C8.875 19.9375 8.875 19.9375 8 18 C7.34 18 6.68 18 6 18 C5.34 14.7 4.68 11.4 4 8 C3.34 8 2.68 8 2 8 C2 7.34 2 6.68 2 6 C1.34 6 0.68 6 0 6 C0 4.02 0 2.04 0 0 Z " fill="#9A414D" transform="translate(1,41)"/>
<path d="M0 0 C0.66 -0.66 1.32 -1.32 2 -2 C4.1640625 -1.9765625 4.1640625 -1.9765625 6.625 -1.625 C7.85089844 -1.45871094 7.85089844 -1.45871094 9.1015625 -1.2890625 C9.72804688 -1.19367188 10.35453125 -1.09828125 11 -1 C10.67 -0.34 10.34 0.32 10 1 C7.66666667 1.33333333 5.33333333 1.66666667 3 2 C2.67 2.66 2.34 3.32 2 4 C2 3.34 2 2.68 2 2 C-2.30067708 2.90014171 -4.3884892 4.09828697 -6.875 7.625 C-7.926875 9.295625 -7.926875 9.295625 -9 11 C-9 7.30581799 -7.71820705 5.22163822 -6 2 C-7.98 2 -9.96 2 -12 2 C-12.33 1.34 -12.66 0.68 -13 0 C-7.85910687 -1.85072153 -5.04468729 -2.21474076 0 0 Z " fill="#332F35" transform="translate(53,86)"/>
<path d="M0 0 C0.556875 0.144375 1.11375 0.28875 1.6875 0.4375 C3.32331082 0.83539993 4.97122452 1.18499515 6.625 1.5 C9 2 9 2 11 3 C11.33 3.99 11.66 4.98 12 6 C14.00016466 7.20882096 14.00016466 7.20882096 16 8 C16 8.99 16 9.98 16 11 C10.63904723 9.41078475 5.29156027 7.81027062 0 6 C0 4.02 0 2.04 0 0 Z " fill="#6A98CE" transform="translate(1,22)"/>
<path d="M0 0 C-0.61488281 0.66386719 -1.22976562 1.32773438 -1.86328125 2.01171875 C-2.67152344 2.89472656 -3.47976562 3.77773437 -4.3125 4.6875 C-5.11300781 5.55761719 -5.91351563 6.42773438 -6.73828125 7.32421875 C-9.05991883 9.90344479 -9.05991883 9.90344479 -10.59375 12.8125 C-11.0578125 13.534375 -11.521875 14.25625 -12 15 C-15.1875 15.3125 -15.1875 15.3125 -18 15 C-17.67 13.68 -17.34 12.36 -17 11 C-16.34 11 -15.68 11 -15 11 C-14.67 10.34 -14.34 9.68 -14 9 C-14 9.66 -14 10.32 -14 11 C-13.34 11 -12.68 11 -12 11 C-11.34 8.03 -10.68 5.06 -10 2 C-9.34 2.33 -8.68 2.66 -8 3 C-8.33 3.66 -8.66 4.32 -9 5 C-8.34 5 -7.68 5 -7 5 C-7 3.35 -7 1.7 -7 0 C-2.25 -1.125 -2.25 -1.125 0 0 Z " fill="#A8505F" transform="translate(24,84)"/>
<path d="M0 0 C2.51083114 1.25541557 2.87125446 2.50063488 4 5 C1 6 1 6 -2 6 C-4.39073445 9.82517513 -4.55966552 13.59665524 -5 18 C-5.66 17.34 -6.32 16.68 -7 16 C-7.33 20.62 -7.66 25.24 -8 30 C-10 28 -10 28 -10.3125 24.5 C-10.03326976 15.41680446 -6.48917375 6.48917375 0 0 Z " fill="#3A444B" transform="translate(73,25)"/>
<path d="M0 0 C1 3 1 3 -0.44140625 6.1796875 C-1.13758071 7.41762679 -1.84512741 8.64922304 -2.5625 9.875 C-3.06620117 10.79345703 -3.06620117 10.79345703 -3.58007812 11.73046875 C-6.42395173 16.67679639 -9.80225715 20.40112857 -15 23 C-22.87301587 23.38095238 -22.87301587 23.38095238 -27 21 C-27.66 21.33 -28.32 21.66 -29 22 C-28.34 20.68 -27.68 19.36 -27 18 C-26.319375 18.33 -25.63875 18.66 -24.9375 19 C-21.34116838 20.2242831 -18.78329077 20.39824113 -15 20 C-9.44040357 17.09518441 -7.30824382 13.74524508 -4.6875 8.3125 C-1.02843045 1.02843045 -1.02843045 1.02843045 0 0 Z " fill="#DFE2E3" transform="translate(99,11)"/>
<path d="M0 0 C0.66 0 1.32 0 2 0 C2.44032071 7.51806849 1.28612778 13.84224277 -1 21 C-3.23495428 18.76504572 -4.0024791 16.97585464 -5.1875 14.0625 C-5.73470703 12.74958984 -5.73470703 12.74958984 -6.29296875 11.41015625 C-7 9 -7 9 -6 6 C-5.34 6.33 -4.68 6.66 -4 7 C-3.375 9.0625 -3.375 9.0625 -3 11 C-2.67 11 -2.34 11 -2 11 C-1.34 7.37 -0.68 3.74 0 0 Z " fill="#9D3D47" transform="translate(46,20)"/>
<path d="M0 0 C1.32 0 2.64 0 4 0 C4.67099984 2.60311992 5.33695338 5.20735398 6 7.8125 C6.19078125 8.55048828 6.3815625 9.28847656 6.578125 10.04882812 C7.35262914 13.10535341 8 15.83373478 8 19 C7.01 18.67 6.02 18.34 5 18 C2.35362771 12.17798096 1.09372246 6.27925363 0 0 Z " fill="#E9E8E8" transform="translate(21,0)"/>
<path d="M0 0 C0 3 0 3 -1.375 4.6875 C-3 6 -3 6 -5 6 C-4.67 6.66 -4.34 7.32 -4 8 C-3.01 8 -2.02 8 -1 8 C-2.21705006 9.01471171 -3.44926884 10.0112461 -4.6875 11 C-5.71423828 11.8353125 -5.71423828 11.8353125 -6.76171875 12.6875 C-9.38783056 14.22741897 -11.00603356 14.25168194 -14 14 C-14 13.34 -14 12.68 -14 12 C-13.34 12 -12.68 12 -12 12 C-12 11.34 -12 10.68 -12 10 C-11.01 9.67 -10.02 9.34 -9 9 C-11.31 8.67 -13.62 8.34 -16 8 C-16 7.67 -16 7.34 -16 7 C-15.02160156 6.87044922 -15.02160156 6.87044922 -14.0234375 6.73828125 C-7.85382562 5.74641149 -4.42933725 4.42933725 0 0 Z " fill="#7395BE" transform="translate(92,27)"/>
<path d="M0 0 C1.66666667 1.66666667 3.33333333 3.33333333 5 5 C5.78375 5.61875 6.5675 6.2375 7.375 6.875 C9 9 9 9 8.75 12.75 C8.5025 13.8225 8.255 14.895 8 16 C7.01 16.33 6.02 16.66 5 17 C4.15557119 15.10908264 3.32488413 13.21202485 2.5 11.3125 C2.0359375 10.25675781 1.571875 9.20101562 1.09375 8.11328125 C0.05049199 5.14372184 -0.23065301 3.10804937 0 0 Z " fill="#F5F8F9" transform="translate(61,65)"/>
<path d="M0 0 C7.92 0 15.84 0 24 0 C24 0.33 24 0.66 24 1 C16.74 1 9.48 1 2 1 C2.40705316 6.13150743 2.40705316 6.13150743 2.83837891 11.26098633 C3.11428108 15.14652736 3.21699848 16.67450228 1 20 C0.10407292 13.16855602 0 7.00207583 0 0 Z " fill="#AD656E" transform="translate(58,0)"/>
<path d="M0 0 C1.33332095 2.6666419 0.67102033 4.16680303 0 7 C-0.66 7 -1.32 7 -2 7 C-2.12375 7.763125 -2.2475 8.52625 -2.375 9.3125 C-3 12 -3 12 -5 15 C-4.65394389 17.28397032 -4.03295481 18.93409037 -3 21 C0.02934491 21.65772428 0.02934491 21.65772428 3 22 C2.67 22.99 2.34 23.98 2 25 C1.67 24.67 1.34 24.34 1 24 C0.01 24.99 -0.98 25.98 -2 27 C-2 26.01 -2 25.02 -2 24 C-2.99 24 -3.98 24 -5 24 C-8.11150466 16.32495518 -8.11150466 16.32495518 -7.37915039 14.19067383 C-7.03875732 13.53607178 -6.69836426 12.88146973 -6.34765625 12.20703125 C-5.98349609 11.49482422 -5.61933594 10.78261719 -5.24414062 10.04882812 C-4.85419922 9.31083984 -4.46425781 8.57285156 -4.0625 7.8125 C-3.48338867 6.68811523 -3.48338867 6.68811523 -2.89257812 5.54101562 C-1.93728243 3.68939311 -0.96978423 1.84407548 0 0 Z " fill="#87454F" transform="translate(44,66)"/>
<path d="M0 0 C4.13621084 3.3810038 7.81316569 6.66590534 11 11 C7.99580359 12.0013988 5.12290635 12.51421457 2 13 C1.93941406 12.39671875 1.87882812 11.7934375 1.81640625 11.171875 C1.69072266 9.97304687 1.69072266 9.97304687 1.5625 8.75 C1.48128906 7.96109375 1.40007812 7.1721875 1.31640625 6.359375 C1.02365007 4.17635361 0.57935581 2.1226818 0 0 Z " fill="#303C45" transform="translate(72,82)"/>
<path d="M0 0 C0.66 0.33 1.32 0.66 2 1 C0.02 4.96 -1.96 8.92 -4 13 C-4.99 13 -5.98 13 -7 13 C-6.67 11.68 -6.34 10.36 -6 9 C-6.928125 9.99 -6.928125 9.99 -7.875 11 C-10 13 -10 13 -12 13 C-12 12.34 -12 11.68 -12 11 C-10.390625 9.4140625 -10.390625 9.4140625 -8.25 7.625 C-5.3756268 5.18382134 -2.61456008 2.72350008 0 0 Z " fill="#F0EFF0" transform="translate(42,66)"/>
<path d="M0 0 C1.32 0.99 2.64 1.98 4 3 C3.34 3 2.68 3 2 3 C2 3.99 2 4.98 2 6 C1.34 6 0.68 6 0 6 C0 6.66 0 7.32 0 8 C0.66 8 1.32 8 2 8 C2 8.66 2 9.32 2 10 C2.99 10.33 3.98 10.66 5 11 C3.35 11 1.7 11 0 11 C0 10.34 0 9.68 0 9 C-0.66 9 -1.32 9 -2 9 C-1.67 9.66 -1.34 10.32 -1 11 C2.02934491 11.65772428 2.02934491 11.65772428 5 12 C5 12.33 5 12.66 5 13 C2.66705225 13.04241723 0.33297433 13.04092937 -2 13 C-3 12 -3 12 -3.25 8.75 C-2.99026663 4.85399939 -2.26032469 3.10794645 0 0 Z " fill="#6F93BD" transform="translate(72,31)"/>
<path d="M0 0 C-1.4427317 3.36637397 -3.16467407 5.66502571 -6 8 C-7.32 8 -8.64 8 -10 8 C-9.649375 7.05125 -9.29875 6.1025 -8.9375 5.125 C-7.64973223 2.12939828 -7.64973223 2.12939828 -9 0 C-5.93109813 -1.53445094 -3.29905734 -0.54984289 0 0 Z " fill="#A33E4A" transform="translate(31,75)"/>
<path d="M0 0 C0.33 1.65 0.66 3.3 1 5 C0.01 5.33 -0.98 5.66 -2 6 C-1.649375 6.556875 -1.29875 7.11375 -0.9375 7.6875 C0.21845993 10.53886783 -0.19032562 12.08517222 -1 15 C-2.97265625 13.81640625 -2.97265625 13.81640625 -5 12 C-5.49609375 9.58984375 -5.49609375 9.58984375 -5.4375 6.9375 C-5.43621094 6.05964844 -5.43492188 5.18179688 -5.43359375 4.27734375 C-5.29050781 3.52582031 -5.14742188 2.77429687 -5 2 C-2 0 -2 0 0 0 Z " fill="#686F76" transform="translate(73,52)"/>
<path d="M0 0 C2.53720246 4.61993094 3.22715952 9.42797203 4.1875 14.5625 C4.37763672 15.52091797 4.56777344 16.47933594 4.76367188 17.46679688 C4.93833984 18.38654297 5.11300781 19.30628906 5.29296875 20.25390625 C5.53309692 21.51182983 5.53309692 21.51182983 5.77807617 22.79516602 C6 25 6 25 5 28 C4.34922704 25.95990245 3.70460176 23.91784331 3.0625 21.875 C2.52302734 20.16957031 2.52302734 20.16957031 1.97265625 18.4296875 C0.60981955 13.62418298 -0.13815733 9.1183835 -0.0625 4.125 C-0.05347656 3.34382813 -0.04445312 2.56265625 -0.03515625 1.7578125 C-0.02355469 1.17773438 -0.01195312 0.59765625 0 0 Z " fill="#374249" transform="translate(55,23)"/>
<path d="M0 0 C0.33 0 0.66 0 1 0 C1 3.96 1 7.92 1 12 C0.34 12 -0.32 12 -1 12 C-5 6.58823529 -5 6.58823529 -5 4 C-5.66 3.67 -6.32 3.34 -7 3 C-5.5459375 2.5359375 -5.5459375 2.5359375 -4.0625 2.0625 C-1.15934208 1.30476658 -1.15934208 1.30476658 0 0 Z " fill="#232F37" transform="translate(41,48)"/>
<path d="M0 0 C1.98 0.66 3.96 1.32 6 2 C6.33 1.34 6.66 0.68 7 0 C7.825 0.639375 8.65 1.27875 9.5 1.9375 C13.23191406 4.46413081 16.55723303 4.69360228 21 5 C21 5.33 21 5.66 21 6 C9.85969208 7.86803944 9.85969208 7.86803944 5.35546875 5.765625 C3.39348428 4.28088 1.64010312 2.8333479 0 1 C0 0.67 0 0.34 0 0 Z " fill="#809CBE" transform="translate(11,31)"/>
<path d="M0 0 C1 3 1 3 -0.3125 5.6875 C-3.91495383 8.78728585 -6.35258044 8.40846775 -10.953125 8.17578125 C-11.62859375 8.11777344 -12.3040625 8.05976562 -13 8 C-13.33 6.68 -13.66 5.36 -14 4 C-13.34 4 -12.68 4 -12 4 C-11.67 3.01 -11.34 2.02 -11 1 C-10.34 2.65 -9.68 4.3 -9 6 C-5.32579134 5.69381595 -4.21864487 5.24228216 -1.6875 2.4375 C-1.130625 1.633125 -0.57375 0.82875 0 0 Z " fill="#E8E8E9" transform="translate(45,89)"/>
<path d="M0 0 C0.33 0.66 0.66 1.32 1 2 C2.32 1.67 3.64 1.34 5 1 C4.52060632 5.71403788 4.03165952 9.66579301 2 14 C1.67 14 1.34 14 1 14 C0.67 9.38 0.34 4.76 0 0 Z " fill="#F7F8F8" transform="translate(42,40)"/>
<path d="M0 0 C4.29 0.66 8.58 1.32 13 2 C12.34 3.32 11.68 4.64 11 6 C10.01 6 9.02 6 8 6 C8 5.34 8 4.68 8 4 C4.37 4.33 0.74 4.66 -3 5 C-3 4.01 -3 3.02 -3 2 C-1.68 2 -0.36 2 1 2 C0.67 1.34 0.34 0.68 0 0 Z " fill="#1E2D36" transform="translate(22,45)"/>
<path d="M0 0 C3.2107419 2.67079731 4.50977252 5.92193387 6.1875 9.6875 C6.71730469 10.86699219 7.24710938 12.04648437 7.79296875 13.26171875 C8.19128906 14.16535156 8.58960938 15.06898437 9 16 C8.01 16.66 7.02 17.32 6 18 C5.34 14.7 4.68 11.4 4 8 C3.34 8 2.68 8 2 8 C2 7.34 2 6.68 2 6 C1.34 6 0.68 6 0 6 C0 4.02 0 2.04 0 0 Z " fill="#9D4B58" transform="translate(1,41)"/>
<path d="M0 0 C2.48674167 0.44406101 3.91700788 0.93574804 5.9375 2.5 C8.29858218 4.21715068 10.13690678 4.60234816 13 5 C12.67 5.99 12.34 6.98 12 8 C4.12244898 7.24254317 4.12244898 7.24254317 1 4 C0.25 1.8125 0.25 1.8125 0 0 Z " fill="#E4E6E8" transform="translate(19,39)"/>
<path d="M0 0 C2.86724686 0.57344937 3.8614515 0.8614515 6 3 C4.35 3.33 2.7 3.66 1 4 C1 4.66 1 5.32 1 6 C0.34 6 -0.32 6 -1 6 C-1 6.66 -1 7.32 -1 8 C-1.66 8 -2.32 8 -3 8 C-3.33 7.34 -3.66 6.68 -4 6 C-4.66 5.67 -5.32 5.34 -6 5 C-6 4.01 -6 3.02 -6 2 C-3.03 2.495 -3.03 2.495 0 3 C0 2.01 0 1.02 0 0 Z " fill="#B35163" transform="translate(23,69)"/>
<path d="M0 0 C2.46278801 2.46278801 2.99771255 4.70676982 4 8 C4.66 7.67 5.32 7.34 6 7 C6 7.66 6 8.32 6 9 C6.66 9 7.32 9 8 9 C7.67 9.66 7.34 10.32 7 11 C5.68 11 4.36 11 3 11 C2.34 12.32 1.68 13.64 1 15 C0.63911385 12.68853911 0.28645809 10.37579171 -0.0625 8.0625 C-0.25972656 6.77472656 -0.45695312 5.48695312 -0.66015625 4.16015625 C-0.82837891 2.59587891 -0.82837891 2.59587891 -1 1 C-0.67 0.67 -0.34 0.34 0 0 Z " fill="#CFCACD" transform="translate(40,31)"/>
<path d="M0 0 C2 2 2 2 2.5 4.3125 C1.73414903 8.42894896 -0.67607566 9.57630517 -4 12 C-5.32 11.34 -6.64 10.68 -8 10 C-7.236875 9.835 -6.47375 9.67 -5.6875 9.5 C-1.75515165 7.30520092 -1.19503462 4.1777633 0 0 Z " fill="#EFF0F1" transform="translate(37,35)"/>
<path d="M0 0 C3.3 0 6.6 0 10 0 C9.34 1.98 8.68 3.96 8 6 C4.65750371 5.40312566 2.53563658 4.26396123 0 2 C0 1.34 0 0.68 0 0 Z " fill="#ECEEEE" transform="translate(19,50)"/>
<path d="M0 0 C1.32 0.33 2.64 0.66 4 1 C4 2.98 4 4.96 4 7 C2.02 7.33 0.04 7.66 -2 8 C-1.47731534 5.23723823 -0.89130413 2.6739124 0 0 Z " fill="#B35266" transform="translate(7,64)"/>
<path d="M0 0 C3.63 0.66 7.26 1.32 11 2 C10.01 2.495 10.01 2.495 9 3 C9 4.65 9 6.3 9 8 C8.01 8 7.02 8 6 8 C6 6.68 6 5.36 6 4 C3.03 3.505 3.03 3.505 0 3 C0 2.01 0 1.02 0 0 Z " fill="#AB3B46" transform="translate(69,71)"/>
<path d="M0 0 C1.32 0 2.64 0 4 0 C5.4783226 2.95664519 5.06032783 5.74229737 5 9 C4.01 9.33 3.02 9.66 2 10 C1.34 6.7 0.68 3.4 0 0 Z " fill="#F5F5F5" transform="translate(21,0)"/>
<path d="M0 0 C0.33 0 0.66 0 1 0 C1.46882399 8.12628256 1.46882399 8.12628256 -0.375 11.5625 C-2 13 -2 13 -4 13 C-3.52343588 11.20763933 -3.04366502 9.41613103 -2.5625 7.625 C-2.29566406 6.62726562 -2.02882813 5.62953125 -1.75390625 4.6015625 C-1 2 -1 2 0 0 Z " fill="#F6F5F6" transform="translate(99,46)"/>
<path d="M0 0 C1.32 0.66 2.64 1.32 4 2 C0.4912812 5.09592835 -2.49197399 6.74194623 -7 8 C-7 7.01 -7 6.02 -7 5 C-5.46875 3.61328125 -5.46875 3.61328125 -3.5 2.3125 C-2.8503125 1.87550781 -2.200625 1.43851563 -1.53125 0.98828125 C-1.0259375 0.66214844 -0.520625 0.33601563 0 0 Z " fill="#799ECC" transform="translate(94,28)"/>
<path d="M0 0 C0.33 0 0.66 0 1 0 C1 2.31 1 4.62 1 7 C2.32 7.66 3.64 8.32 5 9 C5 9.66 5 10.32 5 11 C0.125 10.125 0.125 10.125 -1 9 C-1.1328125 7.1875 -1.1328125 7.1875 -1.125 5 C-1.12757812 4.278125 -1.13015625 3.55625 -1.1328125 2.8125 C-1 1 -1 1 0 0 Z " fill="#934551" transform="translate(35,85)"/>
<path d="M0 0 C0.99 0 1.98 0 3 0 C3.66 1.98 4.32 3.96 5 6 C3.68 6.99 2.36 7.98 1 9 C-1 6 -1 6 -0.625 2.8125 C-0.41875 1.884375 -0.2125 0.95625 0 0 Z " fill="#B6586B" transform="translate(5,78)"/>
<path d="M0 0 C0.33 0 0.66 0 1 0 C1.53154742 1.60064843 2.04988353 3.20568874 2.5625 4.8125 C2.85253906 5.70582031 3.14257812 6.59914063 3.44140625 7.51953125 C4 10 4 10 3 13 C2.67 11.68 2.34 10.36 2 9 C0.68 9 -0.64 9 -2 9 C-1.51421457 5.87709365 -1.0013988 3.00419641 0 0 Z " fill="#954956" transform="translate(54,38)"/>
<path d="M0 0 C-2.31 2.64 -4.62 5.28 -7 8 C-7.66 7.67 -8.32 7.34 -9 7 C-9 6.34 -9 5.68 -9 5 C-8.34 5 -7.68 5 -7 5 C-7 3.35 -7 1.7 -7 0 C-2.25 -1.125 -2.25 -1.125 0 0 Z " fill="#A75A69" transform="translate(24,84)"/>
<path d="M0 0 C-0.99 0.33 -1.98 0.66 -3 1 C-3 1.99 -3 2.98 -3 4 C-2.34 4 -1.68 4 -1 4 C-1.33 4.99 -1.66 5.98 -2 7 C-2 6.34 -2 5.68 -2 5 C-2.66 5 -3.32 5 -4 5 C-4 4.34 -4 3.68 -4 3 C-4.99 2.67 -5.98 2.34 -7 2 C-8.34090759 1.34870203 -9.67592331 0.68486725 -11 0 C-7.01803543 -1.05404945 -4.01804691 -0.84098656 0 0 Z " fill="#1A2A31" transform="translate(82,47)"/>
<path d="M0 0 C0.66 0 1.32 0 2 0 C2.66 2.31 3.32 4.62 4 7 C2.68 7.33 1.36 7.66 0 8 C-0.38063221 5.6739143 -0.71269945 3.33944736 -1 1 C-0.67 0.67 -0.34 0.34 0 0 Z " fill="#B15264" transform="translate(4,54)"/>
<path d="M0 0 C0.33 0.99 0.66 1.98 1 3 C-2.12180401 3.96661363 -4.52083795 3.98988909 -7.75 3.5625 C-8.94882812 3.40974609 -8.94882812 3.40974609 -10.171875 3.25390625 C-10.77515625 3.17011719 -11.3784375 3.08632813 -12 3 C-12 2.67 -12 2.34 -12 2 C-10.56342755 1.66269158 -9.12569907 1.33030409 -7.6875 1 C-6.88699219 0.814375 -6.08648437 0.62875 -5.26171875 0.4375 C-3 0 -3 0 0 0 Z " fill="#D8DBDC" transform="translate(37,32)"/>
<path d="M0 0 C0.99 0 1.98 0 3 0 C3.66 3.3 4.32 6.6 5 10 C4.34 10 3.68 10 3 10 C3 9.01 3 8.02 3 7 C2.34 7 1.68 7 1 7 C0.67 4.69 0.34 2.38 0 0 Z " fill="#35444D" transform="translate(19,3)"/>
<path d="M0 0 C2.37948772 0.17625835 3.70225849 0.69719773 5.37890625 2.40234375 C6.62115486 3.90649092 7.81376056 5.45129851 9 7 C4.94519369 7 3.15167025 5.45129908 0 3 C0 2.01 0 1.02 0 0 Z " fill="#F1F3F4" transform="translate(0,5)"/>
<path d="M0 0 C0.33 0 0.66 0 1 0 C1.18175781 0.60328125 1.36351563 1.2065625 1.55078125 1.828125 C3.41987906 7.85585198 3.41987906 7.85585198 7 13 C4 13 4 13 2.578125 11.6796875 C-1.04152146 6.76122673 -1.04152146 6.76122673 -0.8125 2.5625 C-0.544375 1.716875 -0.27625 0.87125 0 0 Z " fill="#D9DADC" transform="translate(63,53)"/>
<path d="M0 0 C2.475 0.495 2.475 0.495 5 1 C4.67 3.31 4.34 5.62 4 8 C1 6 1 6 0.3125 2.875 C0.209375 1.92625 0.10625 0.9775 0 0 Z " fill="#26323A" transform="translate(64,55)"/>
<path d="M0 0 C1.98 0.99 1.98 0.99 4 2 C3.67 4.31 3.34 6.62 3 9 C2.01 9.33 1.02 9.66 0 10 C0 6.7 0 3.4 0 0 Z " fill="#DCDBDD" transform="translate(66,72)"/>
<path d="M0 0 C1.14926266 0.95421808 2.29430541 1.91352045 3.4375 2.875 C4.07558594 3.40867187 4.71367188 3.94234375 5.37109375 4.4921875 C7 6 7 6 8 8 C6.68 7.67 5.36 7.34 4 7 C3.67 7.99 3.34 8.98 3 10 C2.34 8.68 1.68 7.36 1 6 C1.66 5.67 2.32 5.34 3 5 C2.2575 4.319375 2.2575 4.319375 1.5 3.625 C0 2 0 2 0 0 Z " fill="#924C57" transform="translate(65,64)"/>
<path d="M0 0 C0.33 0 0.66 0 1 0 C1 4.95 1 9.9 1 15 C0.67 15 0.34 15 0 15 C-0.12375 14.030625 -0.2475 13.06125 -0.375 12.0625 C-0.58125 11.051875 -0.7875 10.04125 -1 9 C-1.66 8.67 -2.32 8.34 -3 8 C-1.125 2.25 -1.125 2.25 0 0 Z " fill="#98B7DC" transform="translate(99,14)"/>
<path d="M0 0 C2.64 0.33 5.28 0.66 8 1 C7.67 1.99 7.34 2.98 7 4 C6.67 3.67 6.34 3.34 6 3 C5.01 3.99 4.02 4.98 3 6 C3 5.01 3 4.02 3 3 C2.01 3 1.02 3 0 3 C0 2.01 0 1.02 0 0 Z " fill="#974D57" transform="translate(39,87)"/>
<path d="M0 0 C2.31 0.33 4.62 0.66 7 1 C4 4 1 7 -2 10 C-0.80100302 6.9168649 0.47700477 3.93720508 2 1 C1.34 0.67 0.68 0.34 0 0 Z " fill="#1C2932" transform="translate(45,87)"/>
<path d="M0 0 C0.66 1.32 1.32 2.64 2 4 C-2.625 8.875 -2.625 8.875 -6 10 C-4.34832443 6.4213696 -2.21713508 3.25179812 0 0 Z " fill="#8A3E4A" transform="translate(43,60)"/>
<path d="M0 0 C2.95529457 0.36040178 3.75137927 1.02476855 5.5625 3.3125 C4.5725 3.9725 3.5825 4.6325 2.5625 5.3125 C2.5625 4.6525 2.5625 3.9925 2.5625 3.3125 C0.2525 2.9825 -2.0575 2.6525 -4.4375 2.3125 C-2.4375 0.3125 -2.4375 0.3125 0 0 Z " fill="#AA4C5C" transform="translate(28.4375,71.6875)"/>
<path d="M0 0 C0.33 0.66 0.66 1.32 1 2 C1.66 2 2.32 2 3 2 C2.34 4.64 1.68 7.28 1 10 C0.34 10 -0.32 10 -1 10 C-0.67 6.7 -0.34 3.4 0 0 Z " fill="#E6E4E6" transform="translate(47,30)"/>
<path d="M0 0 C0.99 0.33 1.98 0.66 3 1 C2.01 2.98 1.02 4.96 0 7 C-0.99 7 -1.98 7 -3 7 C-1.125 1.125 -1.125 1.125 0 0 Z " fill="#E7E8EA" transform="translate(15,93)"/>
<path d="M0 0 C2 1 2 1 4 4 C4 4.99 4 5.98 4 7 C4.99 7.66 5.98 8.32 7 9 C4.625 8.75 4.625 8.75 2 8 C-0.09862498 5.10189884 0 3.71621139 0 0 Z " fill="#8F3A46" transform="translate(60,87)"/>
<path d="M0 0 C0.99 0.33 1.98 0.66 3 1 C3.6875 3.0625 3.6875 3.0625 4 5 C2.35 5 0.7 5 -1 5 C-0.67 3.35 -0.34 1.7 0 0 Z " fill="#F5F8F8" transform="translate(88,95)"/>
<path d="M0 0 C0 3.97054597 -1.3139381 5.16471244 -4 8 C-6.140625 8.6484375 -6.140625 8.6484375 -8 9 C-7.04270084 7.87411986 -6.08412105 6.7493285 -5.125 5.625 C-4.59132812 4.99851562 -4.05765625 4.37203125 -3.5078125 3.7265625 C-2.38567993 2.44163349 -1.20628025 1.20628025 0 0 Z " fill="#3D464C" transform="translate(37,73)"/>
<path d="M0 0 C0.33 0.66 0.66 1.32 1 2 C1.66 2.33 2.32 2.66 3 3 C2.67 4.65 2.34 6.3 2 8 C-0.5 6.625 -0.5 6.625 -3 5 C-3 4.34 -3 3.68 -3 3 C-2.01 3 -1.02 3 0 3 C0 2.01 0 1.02 0 0 Z " fill="#E4E1E2" transform="translate(62,37)"/>
<path d="M0 0 C1.32 1.32 2.64 2.64 4 4 C3.34 4.66 2.68 5.32 2 6 C0.02 4.68 -1.96 3.36 -4 2 C-2.68 1.34 -1.36 0.68 0 0 Z " fill="#7EA4D1" transform="translate(31,38)"/>
<path d="M0 0 C-0.33 2.31 -0.66 4.62 -1 7 C-2.32 5.35 -3.64 3.7 -5 2 C-2 0 -2 0 0 0 Z " fill="#6C8FB8" transform="translate(36,35)"/>
<path d="M0 0 C3.39536357 0.60631492 5.30660868 1.89578803 8 4 C9.31836295 4.69580267 10.64791086 5.37224433 12 6 C7.5428126 5.73781251 5.48477302 5.42288711 2.0625 2.4375 C1.381875 1.633125 0.70125 0.82875 0 0 Z " fill="#F3F5F6" transform="translate(17,30)"/>
<path d="M0 0 C0.33 0.99 0.66 1.98 1 3 C-1.3125 4.5625 -1.3125 4.5625 -4 6 C-4.99 5.67 -5.98 5.34 -7 5 C-2.25 1.125 -2.25 1.125 0 0 Z " fill="#EEEFF0" transform="translate(99,29)"/>
<path d="M0 0 C2.97 0 5.94 0 9 0 C9.33 1.32 9.66 2.64 10 4 C6.7 3.01 3.4 2.02 0 1 C0 0.67 0 0.34 0 0 Z " fill="#7295BE" transform="translate(1,27)"/>
<path d="M0 0 C1.20628008 2.33214148 2.1654738 4.49642139 3 7 C1.35 6.67 -0.3 6.34 -2 6 C-2 5.01 -2 4.02 -2 3 C-1.34 3 -0.68 3 0 3 C0 2.01 0 1.02 0 0 Z " fill="#E1E2E3" transform="translate(33,90)"/>
<path d="M0 0 C2.475 0.495 2.475 0.495 5 1 C5.33 2.98 5.66 4.96 6 7 C3.95880212 5.38405168 1.95927063 3.7143618 0 2 C0 1.34 0 0.68 0 0 Z " fill="#9B4B57" transform="translate(70,74)"/>
<path d="M0 0 C2.86724686 0.57344937 3.8614515 0.8614515 6 3 C3.09399739 4.25664978 1.20395416 5 -2 5 C-2 4.34 -2 3.68 -2 3 C-1.34 3 -0.68 3 0 3 C0 2.01 0 1.02 0 0 Z " fill="#B26070" transform="translate(23,69)"/>
<path d="M0 0 C2.64 0.33 5.28 0.66 8 1 C6.6875 3 6.6875 3 5 5 C4.01 5 3.02 5 2 5 C1.34 3.35 0.68 1.7 0 0 Z " fill="#313F49" transform="translate(71,58)"/>
<path d="M0 0 C1.98 0.66 3.96 1.32 6 2 C6 2.99 6 3.98 6 5 C4.125 4.75 4.125 4.75 2 4 C0.75 1.9375 0.75 1.9375 0 0 Z " fill="#F2F2F3" transform="translate(69,66)"/>
<path d="M0 0 C-0.25 1.875 -0.25 1.875 -1 4 C-3.58152302 5.72101535 -4.84918025 6 -8 6 C-3.375 0 -3.375 0 0 0 Z " fill="#E1E1E2" transform="translate(97,58)"/>
<path d="M0 0 C1 4 1 4 0.0625 6.25 C-0.4634375 7.11625 -0.4634375 7.11625 -1 8 C-1.99 8 -2.98 8 -4 8 C-2.68 5.36 -1.36 2.72 0 0 Z " fill="#9B5360" transform="translate(51,48)"/>
<path d="M0 0 C2.64 0.33 5.28 0.66 8 1 C6.625 2.5 6.625 2.5 5 4 C4.34 4 3.68 4 3 4 C3 4.66 3 5.32 3 6 C2.34 6 1.68 6 1 6 C0.67 4.02 0.34 2.04 0 0 Z " fill="#3F4C54" transform="translate(68,45)"/>
<path d="M0 0 C0.99 0 1.98 0 3 0 C2.67 2.64 2.34 5.28 2 8 C0 6 0 6 -0.125 2.875 C-0.08375 1.92625 -0.0425 0.9775 0 0 Z " fill="#95353F" transform="translate(43,33)"/>
<path d="M0 0 C2.64465038 3.1254959 3.84414715 6.08788267 5 10 C4.01 9.67 3.02 9.34 2 9 C1.26953125 6.93359375 1.26953125 6.93359375 0.8125 4.4375 C0.65394531 3.61121094 0.49539063 2.78492188 0.33203125 1.93359375 C0.16767578 0.97646484 0.16767578 0.97646484 0 0 Z " fill="#93A9C1" transform="translate(10,19)"/>
<path d="M0 0 C0.66 0.66 1.32 1.32 2 2 C1.01 3.32 0.02 4.64 -1 6 C-1.99 5.34 -2.98 4.68 -4 4 C-2.68 2.68 -1.36 1.36 0 0 Z " fill="#E3E4E6" transform="translate(36,78)"/>
<path d="M0 0 C1.65 1.65 3.3 3.3 5 5 C4.01 5.33 3.02 5.66 2 6 C1.67 6.66 1.34 7.32 1 8 C0.67 5.36 0.34 2.72 0 0 Z " fill="#E0D7D9" transform="translate(61,65)"/>
<path d="M0 0 C1.98 0.495 1.98 0.495 4 1 C3.67 2.32 3.34 3.64 3 5 C2.67 4.34 2.34 3.68 2 3 C1.67 3.99 1.34 4.98 1 6 C0.34 6 -0.32 6 -1 6 C-0.67 4.02 -0.34 2.04 0 0 Z " fill="#B95B6F" transform="translate(7,64)"/>
<path d="M0 0 C0.99 0.66 1.98 1.32 3 2 C0.36 3.65 -2.28 5.3 -5 7 C-5 6.01 -5 5.02 -5 4 C-2.5 1.8125 -2.5 1.8125 0 0 Z " fill="#D9DCDE" transform="translate(91,34)"/>
</svg>
